<svg id="Layer_1" data-name="Layer 1" xmlns="http://www.w3.org/2000/svg" width="1501" height="804.85" viewBox="0 0 1501 804.85"><defs><style>.cls-1{fill:#999;}.cls-2{fill:#d92323;}.cls-3{fill:#034aa6;}.cls-4{fill:none;stroke:#fff;stroke-linecap:round;stroke-miterlimit:10;stroke-width:11px;}</style></defs><path d="M50.6,548.65l-2.1-16.8,17.1-3.6V360.55l-17.1-1.5v-17.7h62.4q21.3,0,35.85,7.2t21.9,19.5a52.77,52.77,0,0,1,7.35,27.6q0,13.8-4.05,23.1a42.47,42.47,0,0,1-10.2,14.85,65.35,65.35,0,0,1-12.15,8.85,101.14,101.14,0,0,1,16.35,9.3,45.07,45.07,0,0,1,13.65,15.3q5.4,9.6,5.4,25.5,0,28.2-18.3,42.15t-48,13.95Zm35.7-113.1h28.5q14.1,0,22.8-5.55a34.34,34.34,0,0,0,12.9-14.4,42.54,42.54,0,0,0,4.2-18.45,34.79,34.79,0,0,0-10-24.9q-10.05-10.5-34.35-10.5h-24Zm0,92.7h38.4q15,0,23.55-5.55a29.88,29.88,0,0,0,12-14.4,49.57,49.57,0,0,0,3.45-18.15q0-15.3-12.3-25.5t-31.5-10.2H86.3Z"/><path d="M211.1,548.65l-3.9-14.1,16.2-5.4,57.3-187.8h25.2l57.6,187.8,14.1,5.4-3.3,14.1H317v-13.2l24.3-6.3-15.9-52.8H258.5l-15.6,53.7,26.4,5.1v13.5Zm53.1-91.2h55.5l-28.2-93.6Z"/><path d="M406.1,548.65l-2.1-16.8,17.1-3.6V360.55l-17.1-1.5v-17.7h62.39q21.3,0,35.86,7.2t21.89,19.5a52.78,52.78,0,0,1,7.36,27.6q0,13.8-4,23.1a42.61,42.61,0,0,1-10.2,14.85,66,66,0,0,1-12.15,8.85,101.57,101.57,0,0,1,16.35,9.3,45.17,45.17,0,0,1,13.65,15.3q5.4,9.6,5.4,25.5,0,28.2-18.3,42.15t-48,13.95Zm35.7-113.1h28.5q14.08,0,22.8-5.55A34.47,34.47,0,0,0,506,415.6a42.68,42.68,0,0,0,4.2-18.45,34.8,34.8,0,0,0-10.06-24.9q-10-10.5-34.34-10.5h-24Zm0,92.7h38.4q15,0,23.55-5.55a29.93,29.93,0,0,0,12-14.4,49.78,49.78,0,0,0,3.45-18.15q0-15.3-12.31-25.5t-31.5-10.2H441.8Z"/><path d="M657.19,549.85q-18.9,0-33.6-7.65a57.27,57.27,0,0,1-23.1-21.6q-8.4-14-8.4-32.55V360.55l-17.4-1.2v-18h53.1l1.2,16.8-16.5,2.4v124.2q0,21.3,12.3,33.15T659,529.75a58,58,0,0,0,23.1-4.5A37.55,37.55,0,0,0,699,510.85q6.45-9.9,6.45-26.1V360.55l-17.1-1.2v-18h51l1.2,16.8-16.5,2.4v127.5q0,19.5-9,33.45a57.58,57.58,0,0,1-24.15,21.15A77.64,77.64,0,0,1,657.19,549.85Z"/><path d="M830.29,549.85a152.49,152.49,0,0,1-25.95-2.25A94.21,94.21,0,0,1,779.89,540l-3.3-46.2H794l8.1,29.7a60.92,60.92,0,0,0,13.65,4.35,72.07,72.07,0,0,0,14.55,1.65,55.94,55.94,0,0,0,20.25-3.75,37.53,37.53,0,0,0,16.05-11.55q6.3-7.8,6.3-19.8a43,43,0,0,0-2.25-14.25,31.81,31.81,0,0,0-7.8-12q-5.55-5.55-15.75-10.65-12-6-24.3-11.25A145.18,145.18,0,0,1,800,434.05a57.77,57.77,0,0,1-17-16.8q-6.45-9.9-6.45-24.6,0-15.9,8.4-27.45a53.87,53.87,0,0,1,22.35-17.7,73.9,73.9,0,0,1,30.15-6.15,101.92,101.92,0,0,1,23.85,2.7,185.33,185.33,0,0,1,22.35,6.9l3.9,46.2h-16.5l-12.6-31.8a44.16,44.16,0,0,0-11.4-3.15,92,92,0,0,0-12-.75,50.39,50.39,0,0,0-17.55,3.15,33.49,33.49,0,0,0-14.1,9.6q-5.55,6.45-5.55,16.05,0,9.9,4.65,16.8a39,39,0,0,0,12.3,11.55,123.31,123.31,0,0,0,16.65,8.4q9,3.75,17.7,7.65,18.3,8.4,27.9,17.7t13.35,19.2a57.13,57.13,0,0,1,3.75,20.4,56,56,0,0,1-5.1,24.45A53.32,53.32,0,0,1,875,534.55,63.51,63.51,0,0,1,854.44,546,75,75,0,0,1,830.29,549.85Z"/><path d="M935,548.65l-1.5-16.8,16.5-2.4V360.55l-17.4-1.2v-18h53.1l1.2,16.8-16.5,2.4v72h88.8v-72l-17.4-1.2v-18h52.8l1.5,16.8-16.5,2.4v168.9l17.4,1.2v18h-53.1l-1.2-16.8,16.5-2.4v-78h-88.8v78l17.4,1.2v18Z"/><path d="M1140.49,548.65l-1.2-16.8,16.2-2.4V360.55l-17.1-1.2v-18h52.8l1.2,16.8-16.2,2.4v102.3l84-103.5-23.7-1.8v-16.2h57v16.8l-10.2,2.1-60,74.1,53.7,94.5,18,2.7v17.1h-31.8l-54-96.9-33,40.8v36.9l17.1,1.2v18Z"/><path d="M1312.09,548.65l-3.9-14.1,16.2-5.4,57.3-187.8h25.2l57.6,187.8,14.1,5.4-3.3,14.1H1418v-13.2l24.3-6.3-15.9-52.8h-66.9l-15.6,53.7,26.4,5.1v13.5Zm53.1-91.2h55.5l-28.2-93.6Z"/><path class="cls-1" d="M287.13,561.23l-174,117.3c-6.16,3.84-10.38,10.15-10.5,16.47a14.72,14.72,0,0,0,.69,4.76,11.29,11.29,0,0,0,2.34,3.6c6.19,6.26,16.82-1.22,17.32-1.58l175.18-122C294.34,573.75,290.65,567.58,287.13,561.23Z"/><path class="cls-1" d="M956,150.65c-2.64-3.91-106,62.58-107.57,60.2-.69-1.07,19.58-15.72,29.85-22.87,7.12-5,21.93-15,39.39-27.09.88-.61,5.68-4,11.83-8.84,5.12-4,17-13.39,16-14.91-.34-.53-2.79-1-34.3,16.27-44.59,24.5-72.29,43.32-73,42.36s22-18.38,43.36-33.36c7.76-5.46,15.17-11.4,22.94-16.85l1.05-.74c9.7-6.9,21.56-18.62,21.56-18.62,4.38-4.33,6.57-6.51,6.27-7-1.25-1.93-23.32,10.35-24.24,10.86-15.74,8.8-23.4,14.85-41.68,27.79-13.46,9.53-37.29,25.84-38.16,24.69-.66-.85,12.23-11.73,16-14.91,25.64-21.63,38.08-27.94,60-47.33,12-10.62,18-15.93,17.25-17.13-3.77-6-111.87,73.49-128.54,86.06-4.26,3.21-12.87,9.79-16,21a35.68,35.68,0,0,0-.22,18L645,315.16l.07.08c5.39,5.52,10.95,10.85,16.61,16.05l126.63-85.41a43.93,43.93,0,0,0,18,4.32c11,.23,19.22-4,24.25-6.76,24-12.91,44.72-28.14,54.39-35.31,27.61-20.45,32.39-24.22,35.5-26.69C939.13,166.62,957.1,152.33,956,150.65Z"/><path class="cls-2" d="M1398.12,630.55c-77.47-2.43-116.2-3.65-149-4-30.79-.33-74.8-.64-115-1-8.48-.08-28-.25-54.23-.18-17.59,0-17.56.16-28.77.18-32.59.06-45.69.37-71.89,1-12.45.3-29.26,1-32.23,8a7.66,7.66,0,0,0,0,6c1.77,3.77,7.1,4.68,9,5,37.46,6.4,256.44,2.23,256.44,2.23,11-.21,29.12-.31,51.68.77a19.13,19.13,0,0,0,16.88,16c63.21-.78,109.41-1.93,118.45-2.53,7.52-.5,14.55-1.25,14.55-1.25,1.38-.14,2.39-.26,3.27-.37,0,0,3.61-.42,6.85-.85,4.63-.62,53.61-11.54,53-19C1476.79,636.49,1461.83,632.55,1398.12,630.55Z"/><path class="cls-3" d="M109.73,217.79a27.57,27.57,0,0,1,7.88,9.38,25.77,25.77,0,0,1,2.92,12.07v6.15A26.63,26.63,0,0,1,94,271.94H63.38V170.24h32.4a22.53,22.53,0,0,1,22.5,22.5v7.35A21.47,21.47,0,0,1,109.73,217.79Zm-14-37.5H73.43v32.25H95.78A12.18,12.18,0,0,0,107.11,205a12.5,12.5,0,0,0,1-4.88v-7.35a12.09,12.09,0,0,0-3.6-8.77A11.74,11.74,0,0,0,95.78,180.29Zm14.7,65.1v-6.15a15.79,15.79,0,0,0-4.87-11.7A16,16,0,0,0,94,222.74H73.43v39.15H94a16.63,16.63,0,0,0,16.5-16.5Z"/><path class="cls-3" d="M151.58,271.94H141.53V170.24h10.05Z"/><path class="cls-3" d="M202.13,217.64q3.3,1.35,5,2t4.8,2.25a37,37,0,0,1,4.8,2.85,48.15,48.15,0,0,1,4,3.37,17.53,17.53,0,0,1,3.45,4.28,26.44,26.44,0,0,1,2.1,5.17,22.35,22.35,0,0,1,.9,6.45,27,27,0,0,1-8.1,19.73,26.46,26.46,0,0,1-19.5,8.17,26.84,26.84,0,0,1-13.87-3.75A27.18,27.18,0,0,1,175.66,258,27.61,27.61,0,0,1,172,244H182a17.31,17.31,0,0,0,5.18,12.6,16.76,16.76,0,0,0,12.37,5.25,16.53,16.53,0,0,0,12.3-5.25A17.44,17.44,0,0,0,217,244a13.81,13.81,0,0,0-1.13-5.77,11.47,11.47,0,0,0-4-4.5,40.44,40.44,0,0,0-5.62-3.38c-1.86-.9-4.48-2-7.88-3.45q-3.45-1.35-5.25-2.1c-1.2-.5-2.87-1.3-5-2.4a34.68,34.68,0,0,1-5.09-3.07,47.2,47.2,0,0,1-4.28-3.75,19,19,0,0,1-3.67-4.73,27.15,27.15,0,0,1-2.18-5.7,26.7,26.7,0,0,1-.9-7.05,27,27,0,0,1,8.1-19.72,27.31,27.31,0,0,1,33.3-4.43,28.09,28.09,0,0,1,10.05,10.2,27.28,27.28,0,0,1,3.75,13.95H217a17.44,17.44,0,0,0-5.1-12.6,17.11,17.11,0,0,0-21.07-2.85,18.08,18.08,0,0,0-6.38,6.53,17.43,17.43,0,0,0-2.4,8.92,15.64,15.64,0,0,0,1,5.7,15,15,0,0,0,2.47,4.35,17.24,17.24,0,0,0,4.35,3.53,59,59,0,0,0,5.4,2.92Q197.78,215.84,202.13,217.64Z"/><path class="cls-3" d="M238.43,170.24h53.4v10H270.08v91.65H260V180.29h-21.6Z"/><path class="cls-3" d="M361.88,201.59A23.89,23.89,0,0,1,359,213.14a25.32,25.32,0,0,1-7.87,8.85,25.24,25.24,0,0,1,7.2,10.5q3.3,8.4,3.3,27.45a118.11,118.11,0,0,0,.3,12h-10.2q-.15-1.2-.15-12-.15-7-.38-11.4a58.63,58.63,0,0,0-1.2-9,18.63,18.63,0,0,0-2.85-7.2,14,14,0,0,0-5.25-4.2,18.45,18.45,0,0,0-8.17-1.65H316.73v45.45H306.68V170.24h30.15a24.26,24.26,0,0,1,17.7,7.28,23.87,23.87,0,0,1,7.35,17.62Zm-10.2,0v-6.45a15.21,15.21,0,0,0-1.13-5.77,13.53,13.53,0,0,0-3.15-4.73,16,16,0,0,0-4.8-3.15,14.38,14.38,0,0,0-5.77-1.2h-20.1v36.15h20.1a14.85,14.85,0,0,0,14.85-14.85Z"/><path class="cls-3" d="M433.13,185.69q3.9,10,3.9,35.33t-3.9,35.47q-6.15,15.45-23.78,15.45t-23.62-15.45q-3.9-10.2-3.9-35.47t3.9-35.33q6-15.45,23.62-15.45T433.13,185.69Zm-23.7,76.2q7.05,0,10.72-3.6t5.18-12.07q1.5-8.47,1.5-25.13T425.33,196q-1.5-8.47-5.18-12.08t-10.8-3.6q-7.12,0-10.72,3.6T393.45,196q-1.57,8.47-1.57,25.12,0,10,.52,16.73a79.9,79.9,0,0,0,1.65,11.55,18.7,18.7,0,0,0,3.23,7.5,12.51,12.51,0,0,0,5,3.82A18.66,18.66,0,0,0,409.43,261.89Z"/><line class="cls-4" x1="63.02" y1="291.7" x2="437.02" y2="291.7"/></svg>
